<mxfile host="app.diagrams.net" modified="2023-09-23T07:51:19.149Z" agent="Mozilla/5.0 (Macintosh; Intel Mac OS X 10_15_7) AppleWebKit/537.36 (KHTML, like Gecko) Chrome/116.0.0.0 Safari/537.36" etag="gDnUXUrNv9zJ3Fjhpdon" version="21.7.5" type="github">
  <diagram id="C5RBs43oDa-KdzZeNtuy" name="Page-1">
    <mxGraphModel dx="984" dy="662" grid="1" gridSize="10" guides="1" tooltips="1" connect="1" arrows="1" fold="1" page="1" pageScale="1" pageWidth="1169" pageHeight="827" math="0" shadow="0">
      <root>
        <mxCell id="WIyWlLk6GJQsqaUBKTNV-0" />
        <mxCell id="WIyWlLk6GJQsqaUBKTNV-1" parent="WIyWlLk6GJQsqaUBKTNV-0" />
        <mxCell id="xZRfM4M1qsCntxzY2Co2-9" value="" style="group;dropTarget=0;pointerEvents=0;fontSize=20;" parent="WIyWlLk6GJQsqaUBKTNV-1" vertex="1">
          <mxGeometry x="360" width="640" height="45" as="geometry" />
        </mxCell>
        <mxCell id="xZRfM4M1qsCntxzY2Co2-10" value="&lt;font style=&quot;font-size: 20px;&quot;&gt;DIAGRAMA DE CLASSES&lt;/font&gt;" style="points=[[0.688,0.967,0]];html=1;overflow=block;blockSpacing=1;whiteSpace=wrap;fontSize=19.7;fontColor=#a9afb8;fontStyle=1;align=center;spacingLeft=7;spacingRight=7;spacingTop=2;spacing=3;strokeOpacity=0;fillOpacity=0;rounded=1;absoluteArcSize=1;arcSize=12;fillColor=#ffffff;strokeWidth=1.5;lucidId=U7PNEHNEvIEY;" parent="xZRfM4M1qsCntxzY2Co2-9" vertex="1">
          <mxGeometry width="640" height="31" as="geometry" />
        </mxCell>
        <mxCell id="xZRfM4M1qsCntxzY2Co2-11" value="&lt;b&gt;PARK 4 YOU&lt;/b&gt;" style="html=1;overflow=block;blockSpacing=1;whiteSpace=wrap;fontSize=20;fontColor=#a9afb8;align=center;spacingLeft=7;spacingRight=7;spacingTop=2;spacing=3;strokeOpacity=0;fillOpacity=0;rounded=1;absoluteArcSize=1;arcSize=12;fillColor=#ffffff;strokeWidth=1.5;lucidId=U7PNwYMRwzRe;" parent="xZRfM4M1qsCntxzY2Co2-9" vertex="1">
          <mxGeometry y="31" width="640" height="14" as="geometry" />
        </mxCell>
        <mxCell id="xZRfM4M1qsCntxzY2Co2-12" value="" style="html=1;jettySize=18;whiteSpace=wrap;overflow=block;blockSpacing=1;fontSize=13;strokeColor=#a9afb8;strokeOpacity=100;strokeWidth=1.5;rounded=0;startArrow=none;endArrow=none;lucidId=U7PNrnxMDtur;entryX=0.731;entryY=0.968;entryDx=0;entryDy=0;entryPerimeter=0;" parent="xZRfM4M1qsCntxzY2Co2-9" edge="1">
          <mxGeometry width="100" height="100" relative="1" as="geometry">
            <Array as="points" />
            <mxPoint x="189.07999999999998" y="30" as="sourcePoint" />
            <mxPoint x="450.9199999999999" y="30.008000000000038" as="targetPoint" />
          </mxGeometry>
        </mxCell>
        <mxCell id="xZRfM4M1qsCntxzY2Co2-25" value="" style="html=1;jettySize=18;whiteSpace=wrap;overflow=block;blockSpacing=1;fontSize=13;strokeColor=#333333;strokeOpacity=100;strokeWidth=0.8;rounded=1;arcSize=24;edgeStyle=orthogonalEdgeStyle;startArrow=none;endArrow=block;endFill=0;endSize=12;exitX=0.995;exitY=0.693;exitPerimeter=0;lucidId=Nugt.sFMhqZ_;exitDx=0;exitDy=0;" parent="WIyWlLk6GJQsqaUBKTNV-1" edge="1">
          <mxGeometry width="100" height="100" relative="1" as="geometry">
            <Array as="points">
              <mxPoint x="499" y="300" />
              <mxPoint x="640" y="300" />
              <mxPoint x="640" y="270" />
            </Array>
            <mxPoint x="499.0999999999999" y="294.826" as="sourcePoint" />
            <mxPoint x="640" y="250" as="targetPoint" />
          </mxGeometry>
        </mxCell>
        <mxCell id="xZRfM4M1qsCntxzY2Co2-26" value="" style="html=1;jettySize=18;whiteSpace=wrap;overflow=block;blockSpacing=1;fontSize=13;strokeColor=#333333;strokeOpacity=100;strokeWidth=0.8;rounded=1;arcSize=24;edgeStyle=orthogonalEdgeStyle;startArrow=none;endArrow=block;endFill=0;endSize=12;exitX=0;exitY=0.5;lucidId=lIgttDGPqHN6;exitDx=0;exitDy=0;" parent="WIyWlLk6GJQsqaUBKTNV-1" edge="1">
          <mxGeometry width="100" height="100" relative="1" as="geometry">
            <Array as="points">
              <mxPoint x="900" y="300" />
              <mxPoint x="720" y="300" />
              <mxPoint x="720" y="270" />
              <mxPoint x="721" y="254" />
            </Array>
            <mxPoint x="900" y="297.5" as="sourcePoint" />
            <mxPoint x="720" y="250" as="targetPoint" />
          </mxGeometry>
        </mxCell>
        <mxCell id="xZRfM4M1qsCntxzY2Co2-27" value="&lt;b&gt;Cadastro de Vagas&lt;/b&gt;" style="html=1;overflow=block;blockSpacing=1;swimlane;childLayout=stackLayout;horizontal=1;horizontalStack=0;resizeParent=1;resizeParentMax=0;resizeLast=0;collapsible=0;fontStyle=0;marginBottom=0;swimlaneFillColor=#ffffff;startSize=25;whiteSpace=wrap;fontSize=13;fontColor=#333333;align=center;spacing=0;strokeColor=#333333;strokeOpacity=100;strokeWidth=1;" parent="WIyWlLk6GJQsqaUBKTNV-1" vertex="1">
          <mxGeometry x="900" y="470" width="180" height="150" as="geometry" />
        </mxCell>
        <mxCell id="xZRfM4M1qsCntxzY2Co2-28" value="&lt;meta charset=&quot;utf-8&quot;&gt;&lt;span data-lucid-content=&quot;{&amp;quot;t&amp;quot;:&amp;quot;+enderVaga: string\n+QntdVaga: inteiro\n+tipoVeic: bool&amp;quot;,&amp;quot;m&amp;quot;:[{&amp;quot;s&amp;quot;:0,&amp;quot;n&amp;quot;:&amp;quot;a&amp;quot;,&amp;quot;v&amp;quot;:&amp;quot;center&amp;quot;},{&amp;quot;s&amp;quot;:19,&amp;quot;n&amp;quot;:&amp;quot;a&amp;quot;,&amp;quot;v&amp;quot;:&amp;quot;center&amp;quot;},{&amp;quot;s&amp;quot;:38,&amp;quot;n&amp;quot;:&amp;quot;a&amp;quot;,&amp;quot;v&amp;quot;:&amp;quot;center&amp;quot;}]}&quot; data-lucid-type=&quot;application/vnd.lucid.text&quot;&gt;&lt;span&gt;+enderVaga: string&lt;br&gt;&lt;/span&gt;&lt;span&gt;+QntdVaga: inteiro&lt;br&gt;&lt;/span&gt;&lt;span&gt;+tipoVeic: bool&lt;/span&gt;&lt;/span&gt;" style="part=1;html=1;resizeHeight=0;strokeColor=none;fillColor=none;verticalAlign=middle;spacingLeft=4;spacingRight=4;overflow=hidden;rotatable=0;points=[[0,0.5],[1,0.5]];portConstraint=eastwest;swimlaneFillColor=#ffffff;strokeOpacity=100;whiteSpace=wrap;fontSize=13;align=center;" parent="xZRfM4M1qsCntxzY2Co2-27" vertex="1">
          <mxGeometry y="25" width="180" height="65" as="geometry" />
        </mxCell>
        <mxCell id="xZRfM4M1qsCntxzY2Co2-29" value="" style="line;strokeWidth=1;fillColor=none;align=left;verticalAlign=middle;spacingTop=-1;spacingLeft=3;spacingRight=3;rotatable=0;labelPosition=right;points=[];portConstraint=eastwest;" parent="xZRfM4M1qsCntxzY2Co2-27" vertex="1">
          <mxGeometry y="90" width="180" height="8" as="geometry" />
        </mxCell>
        <mxCell id="xZRfM4M1qsCntxzY2Co2-30" value="" style="part=1;resizeHeight=0;strokeColor=none;fillColor=none;align=left;verticalAlign=middle;spacingLeft=4;spacingRight=4;rotatable=0;points=[[0,0.5],[1,0.5]];portConstraint=eastwest;swimlaneFillColor=#ffffff;strokeOpacity=100;whiteSpace=wrap;overflow=block;blockSpacing=1;html=1;fontSize=13;" parent="xZRfM4M1qsCntxzY2Co2-27" vertex="1">
          <mxGeometry y="98" width="180" height="52" as="geometry" />
        </mxCell>
        <mxCell id="xZRfM4M1qsCntxzY2Co2-31" value="" style="html=1;jettySize=18;whiteSpace=wrap;overflow=block;blockSpacing=1;fontSize=13;strokeColor=#333333;strokeOpacity=100;strokeWidth=0.8;rounded=1;arcSize=24;edgeStyle=orthogonalEdgeStyle;startArrow=diamond;startFill=1;startSize=16;endArrow=none;entryX=0.458;entryY=-0.006;entryPerimeter=0;lucidId=j0gtUVh4WwkB;exitX=0.472;exitY=1.029;exitDx=0;exitDy=0;exitPerimeter=0;" parent="WIyWlLk6GJQsqaUBKTNV-1" target="xZRfM4M1qsCntxzY2Co2-27" edge="1" source="xZRfM4M1qsCntxzY2Co2-113">
          <mxGeometry width="100" height="100" relative="1" as="geometry">
            <Array as="points">
              <mxPoint x="985" y="469" />
            </Array>
            <mxPoint x="985" y="320" as="sourcePoint" />
          </mxGeometry>
        </mxCell>
        <mxCell id="xZRfM4M1qsCntxzY2Co2-32" value="1" style="text;html=1;resizable=0;labelBackgroundColor=default;align=center;verticalAlign=middle;fontSize=13;" parent="xZRfM4M1qsCntxzY2Co2-31" vertex="1">
          <mxGeometry x="-1" relative="1" as="geometry">
            <mxPoint x="15" y="9" as="offset" />
          </mxGeometry>
        </mxCell>
        <mxCell id="xZRfM4M1qsCntxzY2Co2-33" value="1..*" style="text;html=1;resizable=0;labelBackgroundColor=default;align=center;verticalAlign=middle;fontSize=13;" parent="xZRfM4M1qsCntxzY2Co2-31" vertex="1">
          <mxGeometry x="1" relative="1" as="geometry">
            <mxPoint x="-12" y="-15" as="offset" />
          </mxGeometry>
        </mxCell>
        <mxCell id="xZRfM4M1qsCntxzY2Co2-39" value="&lt;b&gt;Reservar Vaga&lt;/b&gt;" style="html=1;overflow=block;blockSpacing=1;swimlane;childLayout=stackLayout;horizontal=1;horizontalStack=0;resizeParent=1;resizeParentMax=0;resizeLast=0;collapsible=0;fontStyle=0;marginBottom=0;swimlaneFillColor=#ffffff;startSize=25;whiteSpace=wrap;fontSize=13;fontColor=#333333;align=center;spacing=0;strokeColor=#333333;strokeOpacity=100;fillOpacity=100;fillColor=#ffffff;strokeWidth=1;" parent="WIyWlLk6GJQsqaUBKTNV-1" vertex="1">
          <mxGeometry x="320" y="670" width="180" height="80" as="geometry" />
        </mxCell>
        <mxCell id="xZRfM4M1qsCntxzY2Co2-40" value="&lt;div style=&quot;display: flex; justify-content: center; text-align: center; align-items: baseline; font-size: 0; line-height: 1.25;margin-top: -2px;&quot;&gt;&lt;span&gt;&lt;span style=&quot;font-size:13px;color:#333333;&quot;&gt;-ValorVaga: real&lt;br&gt;&lt;/span&gt;&lt;/span&gt;&lt;/div&gt;&lt;div style=&quot;display: flex; justify-content: center; text-align: center; align-items: baseline; font-size: 0; line-height: 1.25;margin-top: -2px;&quot;&gt;&lt;span&gt;&lt;span style=&quot;font-size:13px;color:#333333;&quot;&gt;-MetodoPag: &lt;/span&gt;&lt;span style=&quot;font-size: 13px;&quot;&gt;&lt;font color=&quot;#000000&quot;&gt;bool&lt;/font&gt;&lt;/span&gt;&lt;/span&gt;&lt;/div&gt;" style="part=1;html=1;resizeHeight=0;strokeColor=none;fillColor=none;verticalAlign=middle;spacingLeft=4;spacingRight=4;overflow=hidden;rotatable=0;points=[[0,0.5],[1,0.5]];portConstraint=eastwest;swimlaneFillColor=#ffffff;strokeOpacity=100;fillOpacity=100;whiteSpace=wrap;fontSize=13;fontColor=#333333;align=center;" parent="xZRfM4M1qsCntxzY2Co2-39" vertex="1">
          <mxGeometry y="25" width="180" height="33" as="geometry" />
        </mxCell>
        <mxCell id="xZRfM4M1qsCntxzY2Co2-41" value="" style="line;strokeWidth=1;fillColor=none;align=left;verticalAlign=middle;spacingTop=-1;spacingLeft=3;spacingRight=3;rotatable=0;labelPosition=right;points=[];portConstraint=eastwest;" parent="xZRfM4M1qsCntxzY2Co2-39" vertex="1">
          <mxGeometry y="58" width="180" height="8" as="geometry" />
        </mxCell>
        <mxCell id="xZRfM4M1qsCntxzY2Co2-42" value="" style="part=1;resizeHeight=0;strokeColor=none;fillColor=none;align=left;verticalAlign=middle;spacingLeft=4;spacingRight=4;rotatable=0;points=[[0,0.5],[1,0.5]];portConstraint=eastwest;swimlaneFillColor=#ffffff;strokeOpacity=100;fillOpacity=100;whiteSpace=wrap;overflow=block;blockSpacing=1;html=1;fontSize=13;" parent="xZRfM4M1qsCntxzY2Co2-39" vertex="1">
          <mxGeometry y="66" width="180" height="14" as="geometry" />
        </mxCell>
        <mxCell id="xZRfM4M1qsCntxzY2Co2-43" value="&lt;b&gt;Pagamento&lt;/b&gt;" style="html=1;overflow=block;blockSpacing=1;swimlane;childLayout=stackLayout;horizontal=1;horizontalStack=0;resizeParent=1;resizeParentMax=0;resizeLast=0;collapsible=0;fontStyle=0;marginBottom=0;swimlaneFillColor=#ffffff;startSize=25;whiteSpace=wrap;fontSize=13;fontColor=#333333;align=center;spacing=0;strokeColor=#333333;strokeOpacity=100;fillOpacity=100;fillColor=#ffffff;strokeWidth=1;" parent="WIyWlLk6GJQsqaUBKTNV-1" vertex="1">
          <mxGeometry x="620" y="623" width="220" height="188" as="geometry" />
        </mxCell>
        <mxCell id="xZRfM4M1qsCntxzY2Co2-44" value="&lt;div style=&quot;display: flex; justify-content: center; text-align: center; align-items: baseline; font-size: 0; line-height: 1.25;margin-top: -2px;&quot;&gt;&lt;span&gt;&lt;span style=&quot;font-size:13px;color:#333333;&quot;&gt;-idFormaPgto: inteiro&#xa;&lt;/span&gt;&lt;/span&gt;&lt;/div&gt;&lt;div style=&quot;display: flex; justify-content: center; text-align: center; align-items: baseline; font-size: 0; line-height: 1.25;margin-top: -2px;&quot;&gt;&lt;span&gt;&lt;span style=&quot;font-size:13px;color:#333333;&quot;&gt;-formaPagto: string&#xa;&lt;/span&gt;&lt;/span&gt;&lt;/div&gt;&lt;div style=&quot;display: flex; justify-content: center; text-align: center; align-items: baseline; font-size: 0; line-height: 1.25;margin-top: -2px;&quot;&gt;&lt;span&gt;&lt;span style=&quot;font-size:13px;color:#333333;&quot;&gt;-descrição: string&lt;/span&gt;&lt;/span&gt;&lt;/div&gt;" style="part=1;html=1;resizeHeight=0;strokeColor=none;fillColor=none;verticalAlign=middle;spacingLeft=4;spacingRight=4;overflow=hidden;rotatable=0;points=[[0,0.5],[1,0.5]];portConstraint=eastwest;swimlaneFillColor=#ffffff;strokeOpacity=100;fillOpacity=100;whiteSpace=wrap;fontSize=13;fontColor=#333333;align=center;" parent="xZRfM4M1qsCntxzY2Co2-43" vertex="1">
          <mxGeometry y="25" width="220" height="65" as="geometry" />
        </mxCell>
        <mxCell id="xZRfM4M1qsCntxzY2Co2-45" value="" style="line;strokeWidth=1;fillColor=none;align=left;verticalAlign=middle;spacingTop=-1;spacingLeft=3;spacingRight=3;rotatable=0;labelPosition=right;points=[];portConstraint=eastwest;" parent="xZRfM4M1qsCntxzY2Co2-43" vertex="1">
          <mxGeometry y="90" width="220" height="8" as="geometry" />
        </mxCell>
        <mxCell id="xZRfM4M1qsCntxzY2Co2-46" value="&lt;div style=&quot;display: flex; justify-content: center; text-align: center; align-items: baseline; font-size: 0; line-height: 1.25;margin-top: -2px;&quot;&gt;&lt;span&gt;&lt;span style=&quot;font-size:13px;color:#333333;&quot;&gt;+escolheFormaPamento: void&#xa;&lt;/span&gt;&lt;/span&gt;&lt;/div&gt;&lt;div style=&quot;display: flex; justify-content: center; text-align: center; align-items: baseline; font-size: 0; line-height: 1.25;margin-top: -2px;&quot;&gt;&lt;span&gt;&lt;span style=&quot;font-size:13px;color:#333333;&quot;&gt;+retomaFormaPagamento: void&#xa;&lt;/span&gt;&lt;/span&gt;&lt;/div&gt;&lt;div style=&quot;display: flex; justify-content: center; text-align: center; align-items: baseline; font-size: 0; line-height: 1.25;margin-top: -2px;&quot;&gt;&lt;span&gt;&lt;span style=&quot;font-size:13px;color:#333333;&quot;&gt;+insereFormadePagamento: void&#xa;&lt;/span&gt;&lt;/span&gt;&lt;/div&gt;&lt;div style=&quot;display: flex; justify-content: center; text-align: center; align-items: baseline; font-size: 0; line-height: 1.25;margin-top: -2px;&quot;&gt;&lt;span&gt;&lt;span style=&quot;font-size:13px;color:#333333;&quot;&gt;+removeFormadePagamento: void&#xa;&lt;/span&gt;&lt;/span&gt;&lt;/div&gt;&lt;div style=&quot;display: flex; justify-content: center; text-align: center; align-items: baseline; font-size: 0; line-height: 1.25;margin-top: -2px;&quot;&gt;&lt;span&gt;&lt;span style=&quot;font-size:13px;color:#333333;&quot;&gt;+enviaValor: void&#xa;&lt;/span&gt;&lt;/span&gt;&lt;/div&gt;&lt;div style=&quot;display: flex; justify-content: center; text-align: center; align-items: baseline; font-size: 0; line-height: 1.25;margin-top: -2px;&quot;&gt;&lt;span&gt;&lt;/span&gt;&lt;/div&gt;" style="part=1;resizeHeight=0;strokeColor=none;fillColor=none;align=left;verticalAlign=middle;spacingLeft=4;spacingRight=4;rotatable=0;points=[[0,0.5],[1,0.5]];portConstraint=eastwest;swimlaneFillColor=#ffffff;strokeOpacity=100;fillOpacity=100;whiteSpace=wrap;overflow=block;blockSpacing=1;html=1;fontSize=13;" parent="xZRfM4M1qsCntxzY2Co2-43" vertex="1">
          <mxGeometry y="98" width="220" height="90" as="geometry" />
        </mxCell>
        <mxCell id="xZRfM4M1qsCntxzY2Co2-53" value="&lt;b&gt;Veículo&lt;/b&gt;" style="html=1;overflow=block;blockSpacing=1;swimlane;childLayout=stackLayout;horizontal=1;horizontalStack=0;resizeParent=1;resizeParentMax=0;resizeLast=0;collapsible=0;fontStyle=0;marginBottom=0;swimlaneFillColor=#ffffff;startSize=25;whiteSpace=wrap;fontSize=13;fontColor=#333333;align=center;spacing=0;strokeColor=#333333;strokeOpacity=100;fillOpacity=100;fillColor=#ffffff;strokeWidth=1;" parent="WIyWlLk6GJQsqaUBKTNV-1" vertex="1">
          <mxGeometry x="10" y="341" width="190" height="117" as="geometry" />
        </mxCell>
        <mxCell id="xZRfM4M1qsCntxzY2Co2-54" value="&lt;div style=&quot;display: flex; justify-content: center; text-align: center; align-items: baseline; font-size: 0; line-height: 1.25;margin-top: -2px;&quot;&gt;&lt;span&gt;&lt;span style=&quot;font-size:13px;color:#333333;&quot;&gt;-tipoVeículo: bool&lt;br&gt;&lt;/span&gt;&lt;/span&gt;&lt;/div&gt;&lt;div style=&quot;display: flex; justify-content: center; text-align: center; align-items: baseline; font-size: 0; line-height: 1.25;margin-top: -2px;&quot;&gt;&lt;span&gt;&lt;span style=&quot;font-size:13px;color:#333333;&quot;&gt;-placa: string&lt;br&gt;&lt;/span&gt;&lt;/span&gt;&lt;/div&gt;&lt;div style=&quot;display: flex; justify-content: center; text-align: center; align-items: baseline; font-size: 0; line-height: 1.25;margin-top: -2px;&quot;&gt;&lt;span&gt;&lt;span style=&quot;font-size:13px;color:#333333;&quot;&gt;-modelo: modelo &lt;br&gt;&lt;/span&gt;&lt;/span&gt;&lt;/div&gt;&lt;div style=&quot;display: flex; justify-content: center; text-align: center; align-items: baseline; font-size: 0; line-height: 1.25;margin-top: -2px;&quot;&gt;&lt;span&gt;&lt;span style=&quot;font-size:13px;color:#333333;&quot;&gt;-cor: cor&lt;br&gt;&lt;/span&gt;&lt;/span&gt;&lt;/div&gt;&lt;div style=&quot;display: flex; justify-content: center; text-align: center; align-items: baseline; font-size: 0; line-height: 1.25;margin-top: -2px;&quot;&gt;&lt;span&gt;&lt;/span&gt;&lt;/div&gt;" style="part=1;html=1;resizeHeight=0;strokeColor=none;fillColor=none;verticalAlign=middle;spacingLeft=4;spacingRight=4;overflow=hidden;rotatable=0;points=[[0,0.5],[1,0.5]];portConstraint=eastwest;swimlaneFillColor=#ffffff;strokeOpacity=100;fillOpacity=100;whiteSpace=wrap;fontSize=13;fontColor=#333333;align=center;" parent="xZRfM4M1qsCntxzY2Co2-53" vertex="1">
          <mxGeometry y="25" width="190" height="65" as="geometry" />
        </mxCell>
        <mxCell id="xZRfM4M1qsCntxzY2Co2-55" value="" style="line;strokeWidth=1;fillColor=none;align=left;verticalAlign=middle;spacingTop=-1;spacingLeft=3;spacingRight=3;rotatable=0;labelPosition=right;points=[];portConstraint=eastwest;" parent="xZRfM4M1qsCntxzY2Co2-53" vertex="1">
          <mxGeometry y="90" width="190" height="8" as="geometry" />
        </mxCell>
        <mxCell id="xZRfM4M1qsCntxzY2Co2-56" value="" style="part=1;resizeHeight=0;strokeColor=none;fillColor=none;align=left;verticalAlign=middle;spacingLeft=4;spacingRight=4;rotatable=0;points=[[0,0.5],[1,0.5]];portConstraint=eastwest;swimlaneFillColor=#ffffff;strokeOpacity=100;fillOpacity=100;whiteSpace=wrap;overflow=block;blockSpacing=1;html=1;fontSize=13;" parent="xZRfM4M1qsCntxzY2Co2-53" vertex="1">
          <mxGeometry y="98" width="190" height="19" as="geometry" />
        </mxCell>
        <mxCell id="xZRfM4M1qsCntxzY2Co2-62" value="" style="endArrow=diamondThin;endFill=1;endSize=24;html=1;rounded=0;entryX=1;entryY=0.5;entryDx=0;entryDy=0;exitX=0.009;exitY=0.968;exitDx=0;exitDy=0;exitPerimeter=0;" parent="WIyWlLk6GJQsqaUBKTNV-1" source="xZRfM4M1qsCntxzY2Co2-44" target="xZRfM4M1qsCntxzY2Co2-40" edge="1">
          <mxGeometry width="160" relative="1" as="geometry">
            <mxPoint x="537" y="728" as="sourcePoint" />
            <mxPoint x="650" y="520" as="targetPoint" />
          </mxGeometry>
        </mxCell>
        <mxCell id="xZRfM4M1qsCntxzY2Co2-63" value="" style="endArrow=diamondThin;endFill=1;endSize=24;html=1;rounded=1;edgeStyle=orthogonalEdgeStyle;" parent="WIyWlLk6GJQsqaUBKTNV-1" source="xZRfM4M1qsCntxzY2Co2-40" target="xZRfM4M1qsCntxzY2Co2-56" edge="1">
          <mxGeometry width="160" relative="1" as="geometry">
            <mxPoint x="140" y="781.55" as="sourcePoint" />
            <mxPoint x="87.32499999999982" y="345" as="targetPoint" />
            <Array as="points">
              <mxPoint x="100" y="725" />
            </Array>
          </mxGeometry>
        </mxCell>
        <mxCell id="xZRfM4M1qsCntxzY2Co2-64" value="" style="endArrow=diamondThin;endFill=1;endSize=24;html=1;rounded=0;exitX=0.549;exitY=0.008;exitDx=0;exitDy=0;exitPerimeter=0;" parent="WIyWlLk6GJQsqaUBKTNV-1" edge="1">
          <mxGeometry width="160" relative="1" as="geometry">
            <mxPoint x="409.49500000000006" y="459.9959999999998" as="sourcePoint" />
            <mxPoint x="409.94" y="318.94" as="targetPoint" />
          </mxGeometry>
        </mxCell>
        <mxCell id="xZRfM4M1qsCntxzY2Co2-79" value="1..*" style="text;html=1;resizable=0;labelBackgroundColor=default;align=center;verticalAlign=middle;fontSize=13;" parent="WIyWlLk6GJQsqaUBKTNV-1" vertex="1">
          <mxGeometry x="683" y="330.0000000000001" as="geometry">
            <mxPoint x="-432" y="-71" as="offset" />
          </mxGeometry>
        </mxCell>
        <mxCell id="xZRfM4M1qsCntxzY2Co2-83" value="&lt;span style=&quot;color: rgb(0, 0, 0); font-family: Helvetica; font-size: 13px; font-style: normal; font-variant-ligatures: normal; font-variant-caps: normal; font-weight: 400; letter-spacing: normal; orphans: 2; text-align: center; text-indent: 0px; text-transform: none; widows: 2; word-spacing: 0px; -webkit-text-stroke-width: 0px; background-color: rgb(255, 255, 255); text-decoration-thickness: initial; text-decoration-style: initial; text-decoration-color: initial; float: none; display: inline !important;&quot;&gt;0..*&lt;/span&gt;" style="text;whiteSpace=wrap;html=1;fontSize=11;fontFamily=Helvetica;fontColor=default;" parent="WIyWlLk6GJQsqaUBKTNV-1" vertex="1">
          <mxGeometry x="74" y="317" width="20" height="20" as="geometry" />
        </mxCell>
        <mxCell id="xZRfM4M1qsCntxzY2Co2-88" value="&lt;span style=&quot;color: rgb(0, 0, 0); font-family: Helvetica; font-size: 13px; font-style: normal; font-variant-ligatures: normal; font-variant-caps: normal; font-weight: 400; letter-spacing: normal; orphans: 2; text-align: center; text-indent: 0px; text-transform: none; widows: 2; word-spacing: 0px; -webkit-text-stroke-width: 0px; background-color: rgb(255, 255, 255); text-decoration-thickness: initial; text-decoration-style: initial; text-decoration-color: initial; float: none; display: inline !important;&quot;&gt;1..*&lt;/span&gt;" style="text;whiteSpace=wrap;html=1;fontSize=11;fontFamily=Helvetica;fontColor=default;" parent="WIyWlLk6GJQsqaUBKTNV-1" vertex="1">
          <mxGeometry x="65" y="460" width="50" height="40" as="geometry" />
        </mxCell>
        <mxCell id="xZRfM4M1qsCntxzY2Co2-89" value="&lt;span style=&quot;color: rgb(0, 0, 0); font-family: Helvetica; font-size: 13px; font-style: normal; font-variant-ligatures: normal; font-variant-caps: normal; font-weight: 400; letter-spacing: normal; orphans: 2; text-align: center; text-indent: 0px; text-transform: none; widows: 2; word-spacing: 0px; -webkit-text-stroke-width: 0px; background-color: rgb(255, 255, 255); text-decoration-thickness: initial; text-decoration-style: initial; text-decoration-color: initial; float: none; display: inline !important;&quot;&gt;1..*&lt;/span&gt;" style="text;whiteSpace=wrap;html=1;fontSize=11;fontFamily=Helvetica;fontColor=default;" parent="WIyWlLk6GJQsqaUBKTNV-1" vertex="1">
          <mxGeometry x="125" y="700" width="50" height="40" as="geometry" />
        </mxCell>
        <mxCell id="xZRfM4M1qsCntxzY2Co2-91" value="" style="endArrow=none;html=1;rounded=1;shadow=0;labelBackgroundColor=default;strokeColor=default;fontFamily=Helvetica;fontSize=11;fontColor=default;endSize=24;shape=connector;entryX=0.564;entryY=-0.01;entryDx=0;entryDy=0;entryPerimeter=0;exitX=0.443;exitY=0.989;exitDx=0;exitDy=0;exitPerimeter=0;" parent="WIyWlLk6GJQsqaUBKTNV-1" edge="1">
          <mxGeometry width="50" height="50" relative="1" as="geometry">
            <mxPoint x="409.5" y="591.338" as="sourcePoint" />
            <mxPoint x="410.4200000000001" y="669.9999999999998" as="targetPoint" />
          </mxGeometry>
        </mxCell>
        <mxCell id="xZRfM4M1qsCntxzY2Co2-92" value="Pesquisa" style="swimlane;fontStyle=1;align=center;verticalAlign=top;childLayout=stackLayout;horizontal=1;startSize=26;horizontalStack=0;resizeParent=1;resizeParentMax=0;resizeLast=0;collapsible=1;marginBottom=0;whiteSpace=wrap;html=1;fontFamily=Helvetica;fontSize=13;fontColor=default;" parent="WIyWlLk6GJQsqaUBKTNV-1" vertex="1">
          <mxGeometry x="320" y="462" width="180" height="130" as="geometry">
            <mxRectangle x="320" y="462" width="90" height="30" as="alternateBounds" />
          </mxGeometry>
        </mxCell>
        <mxCell id="xZRfM4M1qsCntxzY2Co2-93" value="+dataReserva: date&lt;br style=&quot;font-size: 13px;&quot;&gt;+horaReserva: XXXX&lt;br style=&quot;font-size: 13px;&quot;&gt;+duracaoReserva: time" style="text;strokeColor=none;fillColor=none;align=center;verticalAlign=top;spacingLeft=4;spacingRight=4;overflow=hidden;rotatable=0;points=[[0,0.5],[1,0.5]];portConstraint=eastwest;whiteSpace=wrap;html=1;fontSize=13;fontFamily=Helvetica;fontColor=default;" parent="xZRfM4M1qsCntxzY2Co2-92" vertex="1">
          <mxGeometry y="26" width="180" height="54" as="geometry" />
        </mxCell>
        <mxCell id="xZRfM4M1qsCntxzY2Co2-94" value="" style="line;strokeWidth=1;fillColor=none;align=left;verticalAlign=middle;spacingTop=-1;spacingLeft=3;spacingRight=3;rotatable=0;labelPosition=right;points=[];portConstraint=eastwest;strokeColor=inherit;fontFamily=Helvetica;fontSize=11;fontColor=default;" parent="xZRfM4M1qsCntxzY2Co2-92" vertex="1">
          <mxGeometry y="80" width="180" height="8" as="geometry" />
        </mxCell>
        <mxCell id="xZRfM4M1qsCntxzY2Co2-95" value="+searching()&lt;br style=&quot;font-size: 13px;&quot;&gt;+updateSearch()&lt;br&gt;" style="text;strokeColor=none;fillColor=none;align=center;verticalAlign=top;spacingLeft=4;spacingRight=4;overflow=hidden;rotatable=0;points=[[0,0.5],[1,0.5]];portConstraint=eastwest;whiteSpace=wrap;html=1;fontSize=13;fontFamily=Helvetica;fontColor=default;" parent="xZRfM4M1qsCntxzY2Co2-92" vertex="1">
          <mxGeometry y="88" width="180" height="42" as="geometry" />
        </mxCell>
        <mxCell id="xZRfM4M1qsCntxzY2Co2-96" value="Cliente" style="swimlane;fontStyle=1;align=center;verticalAlign=top;childLayout=stackLayout;horizontal=1;startSize=26;horizontalStack=0;resizeParent=1;resizeParentMax=0;resizeLast=0;collapsible=1;marginBottom=0;whiteSpace=wrap;html=1;fontFamily=Helvetica;fontSize=13;fontColor=default;" parent="WIyWlLk6GJQsqaUBKTNV-1" vertex="1">
          <mxGeometry x="320" y="160" width="180" height="160" as="geometry" />
        </mxCell>
        <mxCell id="xZRfM4M1qsCntxzY2Co2-97" value="&lt;div style=&quot;border-color: var(--border-color); display: flex; justify-content: center; align-items: baseline; font-size: 13px; line-height: 1.25; margin-top: -2px;&quot;&gt;&lt;span style=&quot;border-color: var(--border-color); font-size: 13px;&quot;&gt;&lt;/span&gt;&lt;/div&gt;&lt;div style=&quot;border-color: var(--border-color); display: flex; justify-content: center; align-items: baseline; font-size: 13px; line-height: 1.25; margin-top: -2px;&quot;&gt;&lt;span style=&quot;border-color: var(--border-color); font-size: 13px;&quot;&gt;-nomeLocatario: string&lt;br&gt;-infoPagto: string&lt;span data-lucid-content=&quot;{&amp;quot;t&amp;quot;:&amp;quot;  -nomeLocatario: string\n-infoPagto: string&amp;quot;,&amp;quot;m&amp;quot;:[{&amp;quot;s&amp;quot;:0,&amp;quot;n&amp;quot;:&amp;quot;a&amp;quot;,&amp;quot;v&amp;quot;:&amp;quot;center&amp;quot;},{&amp;quot;s&amp;quot;:0,&amp;quot;n&amp;quot;:&amp;quot;s&amp;quot;,&amp;quot;v&amp;quot;:21.333333333333336,&amp;quot;e&amp;quot;:2},{&amp;quot;s&amp;quot;:25,&amp;quot;n&amp;quot;:&amp;quot;a&amp;quot;,&amp;quot;v&amp;quot;:&amp;quot;center&amp;quot;}]}&quot; data-lucid-type=&quot;application/vnd.lucid.text&quot;&gt;&lt;/span&gt;&lt;br&gt;&lt;/span&gt;&lt;/div&gt;" style="text;strokeColor=none;fillColor=none;align=center;verticalAlign=top;spacingLeft=4;spacingRight=4;overflow=hidden;rotatable=0;points=[[0,0.5],[1,0.5]];portConstraint=eastwest;whiteSpace=wrap;html=1;fontSize=13;fontFamily=Helvetica;fontColor=default;" parent="xZRfM4M1qsCntxzY2Co2-96" vertex="1">
          <mxGeometry y="26" width="180" height="44" as="geometry" />
        </mxCell>
        <mxCell id="xZRfM4M1qsCntxzY2Co2-98" value="" style="line;strokeWidth=1;fillColor=none;align=left;verticalAlign=middle;spacingTop=-1;spacingLeft=3;spacingRight=3;rotatable=0;labelPosition=right;points=[];portConstraint=eastwest;strokeColor=inherit;fontFamily=Helvetica;fontSize=11;fontColor=default;" parent="xZRfM4M1qsCntxzY2Co2-96" vertex="1">
          <mxGeometry y="70" width="180" height="8" as="geometry" />
        </mxCell>
        <mxCell id="xZRfM4M1qsCntxzY2Co2-99" value="+cadastro()&lt;br style=&quot;border-color: var(--border-color); font-size: 13px;&quot;&gt;&lt;span style=&quot;border-color: var(--border-color); font-size: 13px;&quot;&gt;+login()&lt;br style=&quot;border-color: var(--border-color); font-size: 13px;&quot;&gt;&lt;/span&gt;&lt;span style=&quot;border-color: var(--border-color); font-size: 13px;&quot;&gt;+atualizarPerfil()&lt;/span&gt;" style="text;strokeColor=none;fillColor=none;align=center;verticalAlign=top;spacingLeft=4;spacingRight=4;overflow=hidden;rotatable=0;points=[[0,0.5],[1,0.5]];portConstraint=eastwest;whiteSpace=wrap;html=1;fontSize=13;fontFamily=Helvetica;fontColor=default;" parent="xZRfM4M1qsCntxzY2Co2-96" vertex="1">
          <mxGeometry y="78" width="180" height="82" as="geometry" />
        </mxCell>
        <mxCell id="xZRfM4M1qsCntxzY2Co2-101" value="" style="endArrow=diamondThin;endFill=0;endSize=24;html=1;rounded=1;shadow=0;labelBackgroundColor=default;strokeColor=default;fontFamily=Helvetica;fontSize=11;fontColor=default;shape=connector;entryX=-0.008;entryY=0.01;entryDx=0;entryDy=0;entryPerimeter=0;" parent="WIyWlLk6GJQsqaUBKTNV-1" target="xZRfM4M1qsCntxzY2Co2-99" edge="1">
          <mxGeometry width="160" relative="1" as="geometry">
            <mxPoint x="100" y="340" as="sourcePoint" />
            <mxPoint x="270" y="240" as="targetPoint" />
            <Array as="points">
              <mxPoint x="100" y="240" />
            </Array>
          </mxGeometry>
        </mxCell>
        <mxCell id="xZRfM4M1qsCntxzY2Co2-106" value="Usuários" style="swimlane;fontStyle=1;align=center;verticalAlign=top;childLayout=stackLayout;horizontal=1;startSize=26;horizontalStack=0;resizeParent=1;resizeParentMax=0;resizeLast=0;collapsible=1;marginBottom=0;whiteSpace=wrap;html=1;fontFamily=Helvetica;fontSize=13;fontColor=default;" parent="WIyWlLk6GJQsqaUBKTNV-1" vertex="1">
          <mxGeometry x="590" y="70" width="190" height="180" as="geometry" />
        </mxCell>
        <mxCell id="xZRfM4M1qsCntxzY2Co2-107" value="&lt;div style=&quot;border-color: var(--border-color); color: rgb(51, 51, 51); display: flex; justify-content: center; align-items: baseline; font-size: 13px; line-height: 1.25; margin-top: -2px;&quot;&gt;&lt;span style=&quot;border-color: var(--border-color); font-size: 13px;&quot;&gt;&lt;/span&gt;&lt;/div&gt;&lt;div style=&quot;border-color: var(--border-color); color: rgb(51, 51, 51); display: flex; justify-content: center; align-items: baseline; font-size: 13px; line-height: 1.25; margin-top: -2px;&quot;&gt;&lt;span style=&quot;border-color: var(--border-color); font-size: 13px;&quot;&gt;&lt;span style=&quot;border-color: var(--border-color); font-size: 13px;&quot;&gt;-senha: string&lt;br style=&quot;border-color: var(--border-color); font-size: 13px;&quot;&gt;&lt;/span&gt;&lt;/span&gt;&lt;/div&gt;&lt;div style=&quot;border-color: var(--border-color); color: rgb(51, 51, 51); display: flex; justify-content: center; align-items: baseline; font-size: 13px; line-height: 1.25; margin-top: -2px;&quot;&gt;&lt;span style=&quot;border-color: var(--border-color); font-size: 13px;&quot;&gt;&lt;span style=&quot;border-color: var(--border-color); font-size: 13px;&quot;&gt;-estadLogin: string&lt;br style=&quot;border-color: var(--border-color); font-size: 13px;&quot;&gt;&lt;/span&gt;&lt;/span&gt;&lt;/div&gt;&lt;div style=&quot;border-color: var(--border-color); color: rgb(51, 51, 51); display: flex; justify-content: center; align-items: baseline; font-size: 13px; line-height: 1.25; margin-top: -2px;&quot;&gt;&lt;span style=&quot;border-color: var(--border-color); font-size: 13px;&quot;&gt;&lt;span style=&quot;border-color: var(--border-color); font-size: 13px;&quot;&gt;-dataCadastro: date&lt;br style=&quot;border-color: var(--border-color); font-size: 13px;&quot;&gt;&lt;/span&gt;&lt;/span&gt;&lt;/div&gt;&lt;div style=&quot;border-color: var(--border-color); color: rgb(51, 51, 51); display: flex; justify-content: center; align-items: baseline; font-size: 13px; line-height: 1.25; margin-top: -2px;&quot;&gt;&lt;span style=&quot;border-color: var(--border-color); font-size: 13px;&quot;&gt;&lt;span style=&quot;border-color: var(--border-color); font-size: 13px;&quot;&gt;-telefone: inteiro&lt;br style=&quot;border-color: var(--border-color); font-size: 13px;&quot;&gt;&lt;/span&gt;&lt;/span&gt;&lt;/div&gt;&lt;div style=&quot;border-color: var(--border-color); color: rgb(51, 51, 51); display: flex; justify-content: center; align-items: baseline; font-size: 13px; line-height: 1.25; margin-top: -2px;&quot;&gt;&lt;span style=&quot;border-color: var(--border-color); font-size: 13px;&quot;&gt;&lt;span style=&quot;border-color: var(--border-color); font-size: 13px;&quot;&gt;-email: string&lt;br style=&quot;border-color: var(--border-color); font-size: 13px;&quot;&gt;&lt;/span&gt;&lt;/span&gt;&lt;/div&gt;&lt;div style=&quot;border-color: var(--border-color); color: rgb(51, 51, 51); display: flex; justify-content: center; align-items: baseline; font-size: 13px; line-height: 1.25; margin-top: -2px;&quot;&gt;&lt;span style=&quot;border-color: var(--border-color); font-size: 13px;&quot;&gt;&lt;span style=&quot;border-color: var(--border-color); font-size: 13px;&quot;&gt;-endereco: string&lt;/span&gt;&lt;/span&gt;&lt;/div&gt;" style="text;strokeColor=none;fillColor=none;align=center;verticalAlign=top;spacingLeft=4;spacingRight=4;overflow=hidden;rotatable=0;points=[[0,0.5],[1,0.5]];portConstraint=eastwest;whiteSpace=wrap;html=1;fontSize=13;fontFamily=Helvetica;fontColor=default;" parent="xZRfM4M1qsCntxzY2Co2-106" vertex="1">
          <mxGeometry y="26" width="190" height="104" as="geometry" />
        </mxCell>
        <mxCell id="xZRfM4M1qsCntxzY2Co2-108" value="" style="line;strokeWidth=1;fillColor=none;align=left;verticalAlign=middle;spacingTop=-1;spacingLeft=3;spacingRight=3;rotatable=0;labelPosition=right;points=[];portConstraint=eastwest;strokeColor=inherit;fontFamily=Helvetica;fontSize=11;fontColor=default;" parent="xZRfM4M1qsCntxzY2Co2-106" vertex="1">
          <mxGeometry y="130" width="190" height="8" as="geometry" />
        </mxCell>
        <mxCell id="xZRfM4M1qsCntxzY2Co2-109" value="+verifLogin(): bool" style="text;strokeColor=none;fillColor=none;align=center;verticalAlign=top;spacingLeft=4;spacingRight=4;overflow=hidden;rotatable=0;points=[[0,0.5],[1,0.5]];portConstraint=eastwest;whiteSpace=wrap;html=1;fontSize=13;fontFamily=Helvetica;fontColor=default;" parent="xZRfM4M1qsCntxzY2Co2-106" vertex="1">
          <mxGeometry y="138" width="190" height="42" as="geometry" />
        </mxCell>
        <mxCell id="xZRfM4M1qsCntxzY2Co2-110" value="Parceiro" style="swimlane;fontStyle=1;align=center;verticalAlign=top;childLayout=stackLayout;horizontal=1;startSize=29;horizontalStack=0;resizeParent=1;resizeParentMax=0;resizeLast=0;collapsible=1;marginBottom=0;whiteSpace=wrap;html=1;fontFamily=Helvetica;fontSize=13;fontColor=default;" parent="WIyWlLk6GJQsqaUBKTNV-1" vertex="1">
          <mxGeometry x="900" y="150" width="180" height="160" as="geometry" />
        </mxCell>
        <mxCell id="xZRfM4M1qsCntxzY2Co2-111" value="&lt;div style=&quot;border-color: var(--border-color); display: flex; justify-content: center; align-items: baseline; font-size: 13px; line-height: 1.25; margin-top: -2px;&quot;&gt;&lt;span style=&quot;border-color: var(--border-color); font-size: 13px;&quot;&gt;&lt;/span&gt;&lt;/div&gt;&lt;div style=&quot;border-color: var(--border-color); display: flex; justify-content: center; align-items: baseline; font-size: 13px; line-height: 1.25; margin-top: -2px;&quot;&gt;&lt;span style=&quot;border-color: var(--border-color); font-size: 13px;&quot;&gt;&lt;br&gt;&lt;/span&gt;&lt;span style=&quot;border-color: var(--border-color); font-size: 13px;&quot;&gt;&lt;br&gt;&lt;/span&gt;&lt;span style=&quot;border-color: var(--border-color); font-size: 13px;&quot;&gt;&lt;br&gt;&lt;/span&gt;&lt;span style=&quot;border-color: var(--border-color); font-size: 13px;&quot;&gt;&lt;br&gt;&lt;/span&gt;&lt;span style=&quot;border-color: var(--border-color); font-size: 13px;&quot;&gt;&lt;br&gt;&lt;/span&gt;&lt;span style=&quot;border-color: var(--border-color); font-size: 13px;&quot;&gt;&lt;div style=&quot;&quot;&gt;&lt;span style=&quot;background-color: initial;&quot;&gt;-nomeParceiro: string&lt;/span&gt;&lt;/div&gt;&lt;span style=&quot;border-color: var(--border-color);&quot;&gt;&lt;div style=&quot;&quot;&gt;&lt;span style=&quot;background-color: initial;&quot;&gt;-dadosBancarios: string&lt;/span&gt;&lt;/div&gt;&lt;/span&gt;&lt;/span&gt;&lt;/div&gt;" style="text;strokeColor=none;fillColor=none;align=center;verticalAlign=top;spacingLeft=4;spacingRight=4;overflow=hidden;rotatable=0;points=[[0,0.5],[1,0.5]];portConstraint=eastwest;whiteSpace=wrap;html=1;fontSize=13;fontFamily=Helvetica;fontColor=default;" parent="xZRfM4M1qsCntxzY2Co2-110" vertex="1">
          <mxGeometry y="29" width="180" height="41" as="geometry" />
        </mxCell>
        <mxCell id="xZRfM4M1qsCntxzY2Co2-112" value="" style="line;strokeWidth=1;fillColor=none;align=left;verticalAlign=middle;spacingTop=-1;spacingLeft=3;spacingRight=3;rotatable=0;labelPosition=right;points=[];portConstraint=eastwest;strokeColor=inherit;fontFamily=Helvetica;fontSize=11;fontColor=default;" parent="xZRfM4M1qsCntxzY2Co2-110" vertex="1">
          <mxGeometry y="70" width="180" height="8" as="geometry" />
        </mxCell>
        <mxCell id="xqCbTa7tA362kqNnKRvW-1" value="+login()&lt;br&gt;+atualizarPerfil()&lt;br&gt;+atualDisponib():bool&lt;br&gt;+parceiroConfiVaga()&lt;br&gt;" style="text;strokeColor=none;fillColor=none;align=center;verticalAlign=top;spacingLeft=4;spacingRight=4;overflow=hidden;rotatable=0;points=[[0,0.5],[1,0.5]];portConstraint=eastwest;whiteSpace=wrap;html=1;fontSize=13;fontFamily=Helvetica;fontColor=default;" vertex="1" parent="xZRfM4M1qsCntxzY2Co2-110">
          <mxGeometry y="78" width="180" height="82" as="geometry" />
        </mxCell>
        <mxCell id="xZRfM4M1qsCntxzY2Co2-113" value="&lt;div style=&quot;border-color: var(--border-color); color: rgb(0, 0, 0); font-family: Helvetica; font-style: normal; font-variant-ligatures: normal; font-variant-caps: normal; font-weight: 400; letter-spacing: normal; orphans: 2; text-align: center; text-indent: 0px; text-transform: none; widows: 2; word-spacing: 0px; -webkit-text-stroke-width: 0px; text-decoration-thickness: initial; text-decoration-style: initial; text-decoration-color: initial; background-color: rgb(251, 251, 251); display: flex; justify-content: center; align-items: baseline; font-size: 0px; line-height: 1.25; margin-top: -2px;&quot;&gt;&lt;span style=&quot;border-color: var(--border-color);&quot;&gt;&lt;br&gt;&lt;/span&gt;&lt;/div&gt;" style="text;strokeColor=none;fillColor=none;align=center;verticalAlign=top;spacingLeft=4;spacingRight=4;overflow=hidden;rotatable=0;points=[[0,0.5],[1,0.5]];portConstraint=eastwest;whiteSpace=wrap;html=1;fontSize=13;fontFamily=Helvetica;fontColor=default;" parent="xZRfM4M1qsCntxzY2Co2-110" vertex="1">
          <mxGeometry y="160" width="180" as="geometry" />
        </mxCell>
        <mxCell id="xqCbTa7tA362kqNnKRvW-9" value="" style="shape=image;verticalLabelPosition=bottom;labelBackgroundColor=default;verticalAlign=top;aspect=fixed;imageAspect=0;image=data:image/jpeg,/9j/4AAQSkZJRgABAQAAAQABAAD/2wBDAAgGBgcGBQgHBwcJCQgKDBQNDAsLDBkSEw8UHRofHh0aHBwgJC4nICIsIxwcKDcpLDAxNDQ0Hyc5PTgyPC4zNDL/2wBDAQkJCQwLDBgNDRgyIRwhMjIyMjIyMjIyMjIyMjIyMjIyMjIyMjIyMjIyMjIyMjIyMjIyMjIyMjIyMjIyMjIyMjL/wgARCAH0AfQDASIAAhEBAxEB/8QAGgABAAMBAQEAAAAAAAAAAAAAAAQFBgMCAf/EABgBAQEBAQEAAAAAAAAAAAAAAAABAgME/9oADAMBAAIQAxAAAAK/AAAAAAAAAAAAAAAAAAAAAAAAAAAAAAAAAAAAAAAAAAAAAAAAAAAAAAAAAAAAAAAAAAAAAAAAAAAAAAAAAAAAAAAAAAAAAAAAAAAAAAAAAAAAAAAAAAAAAAAAAAAAAAAAAAAAAAAAAAAAAAAAAAAAAAAAAAAAAAAAAAAAAAAAAAAAAAAAAAAAAAAAAAAAAAAAAAAAAAAAAAAAAAAAAAAAAAAAAAAAAAAAAAAAAAAAAAAIksr7Q/Z0vXHteQ5HVR9J1uHn1rkAAAAAAAAAAAAAAAAAAAAAA49qObsnDzNT+lPcXDzEr5rp0nd1+efbXKl7WkPPXjG4XU305yGuFDZy6qdbVTW95+hcgAAAAAAAAAAAAAAAAAAAKS7pM9bvx7rriK5Xee0Gz812uFmz/GzTMz3L9Xzz5U3CaqbWNVzpfIsq8uFRfGocyr4zV08e9cgAAAAAAAAAAAAAAAAAAFHKi47pc3pcK6Pw1zj2Nr6OHb78Efn5mosazEntGrJq8+Q5txU+biPOnb1Q2STOPZedFYTaydrNSXF5+xcgAAAAAAAAAAAAAACrmp1R7t50hzy8lfYUNnjQ+PR9coE1JpOXzHrCbTYVqxIizO++HKFzh562FrSX15Ku0a50tv4qJ0vUGdeXGovTUGdWxpq7ePeuQAAAAAAAAAAAAAET5MTQXIp5rtAiMev34JsAAA+j5o6q915+XylsCf6N+cACtm9U0Fy5dURpIoWAAAAAAAAAAAAAAAfKuZmJq7UJb5Qi+UIvlCL5QjXfcguNf7x+uPHD5ELkAAAAAAAAAAAAAAAAAAAAAAFTRbGCZxoaE8ALSeZxoxnGj9lU0Qq7QKfvU6Q9gAAAAAAAAAAAAAAAAAAAAFeWCvlHYiEvlE7ETvKhlgr5Z1R+RNRuZNIZM5RJJFsa+WdUCSdnGGWTl8OyBKOqBPAAAAAAAAAAAAAAAAIeM0mfOfe4pjc4bVZE83lVenzOWngrrD39Pn2BKONtRbg84i4riPrMpuTC6HPTCJq6r0VHmdKIllXejlacopx2uZ0wAAAAAAAAAAAAAAABlonPwd5kXVFHGiW5RazJa0zH3hPIegz+iM16fC7vK6CVVj2rz7ss5ozAlmaLKbHCF9WXuXLumu6I1Ga0+VNRbxpIAAAAAAAAAAAAAAA4d6ky2wyG8PUGdnSin8ZBXaagsinv6zuQbLxDO0G9oi/oLr0RK2zrC70Nf6MjrslvCvyWlzZp8vM9k6otakv6H1ZGlAAAAAAAAAAAAAAAAqrUZ/QAz+gFWtBQL8U8XRCrrNOIVLpxXWIVlbpQrbIZ7QhyzunGav8AsIlDqRnb/wBgAAAAAAAAAAAAAAAAAAAAAAAAAAAAAAAAAAAAAAAAAAAAAAAAAAAAAAAAAAAAAAAAAAAAAAAAAAAAAAAAAAAAAAAAAAAAAAAAAAAAAAAAAAAAAAAAAAAAAAAAAAAAAAAAAAAAAAAAAAAAAAAAAAAAAAAAAAAAAAAAAAAAAAAAAAAAAAAAAAAAAAAAAAAAAAAAAAAAAAAAAAAAAAAAAAAAAAAAAAAAAAAAAAAAAAAAAAAAAAAAAAAAAAAAAAAAAAAAAAAAAAAAAAAAAAAAAAAAAAAAAAAAAAAAAAAAAAAAAAAAAAAAAAAAAAAAAAAAAAAAAAAAAAAAAAAAAAAAAAAAAAAAAAAAAAAAAAAAAAAAAAAAAAAAAAAAAAAAAAAAAAAAAAAAAAAAAAAD/9oADAMBAAIAAwAAACHzzzzzzzzzzzzzzzzzzzzzzzzzzzzzzzzzzzzzzzzzzzzzzzzzzzzzzzzzzzzzzzzzzzzzzzzzzzzzzzzzzzzzzzzzzzzzzzzzzzzzzzzzzzzzzzzzzzzzzzzzzzzzzzzzzzzzzzzzzzzzzzzzzzzzzzzzzzzzzzzzzzzzzzzzzzzzzzzzzzzzzzzzzzzzzzzzzzzzzzzzzzzzzzzzzzzzzzzzzzzzzzzzzzzzzzzzzzrHfvLzzzzzzzzzzzzzzzzzzzzzzzw12I7y0v6THzzzzzzzzzzzzzzzzzzzzyr5G/DTS1z5lXzzzzzzzzzzzzzzzzzzzz5exxz017cr68DnzzzzzzzzzzzzzzzzbT+TjmT2th387D61HTzzzzzzzzzzzzzwzygz33333JDzzwzy97zzzzzzzzzzzzzzzzLDDDDADhDzzzzzzzzzzzzzzzzzzzzzzywwAgBRxzTzzzzzzzzzzzzzzzzzzzzzTzyyTjTzjBzTDTDTzzzzzzzzzzzzzzzyxwyygzBxxQBzSDTzzzzzzzzzzzzzzzzwCjSBAAAgiRRAxghzzzzzzzzzzzzzzzzxzhjQBTyzCBAizgzzzzzzzzzzzzzzzzzxzwzywxzzzxwzwzzzzzzzzzzzzzzzzzzzzzzzzzzzzzzzzzzzzzzzzzzzzzzzzzzzzzzzzzzzzzzzzzzzzzzzzzzzzzzzzzzzzzzzzzzzzzzzzzzzzzzzzzzzzzzzzzzzzzzzzzzzzzzzzzzzzzzzzzzzzzzzzzzzzzzzzzzzzzzzzzzzzzzzzzzzzzzzzzzzzzzzzzzzzzzzzzzzzzzzzzzzzzzzzzzzzzzzzzzzzzzzzzzzzzzzzzzzzzzzzzzzzzzzzzzzzzzzzzzzzzzzzzzzzzzzzzzzzzzzzzzzzzzzzzzzzzzzzzzzzzzzzzzzzzzzzzzzzzzzzzzzzzzzzzzzzzzzzzzzzzzzzzzzzzzzzzzzzzzzzzzzzzzzzzzzzzzzzzzzzzzzzzzzzzzzzzzzzzz/2gAMAwEAAgADAAAAEPPPPPPPPPPPPPPPPPPPPPPPPPPPPPPPPPPPPPPPPPPPPPPPPPPPPPPPPPPPPPPPPPPPPPPPPPPPPPPPPPPPPPPPPPPPPPPPPPPPPPPPPPPPPPPPPPPPPPPPPPPPPPPPPPPPPPPPPPPPPPPPPPPPPPPPPPPPPPPPPPPPPPPPPPPPPPPPPPPPPPPPPPPPPPPPPPPPPPPPPPPPPPPPPPPPPPPPPPPPPPPPPPPPPPPPPPPPPr9/uNfPPPPPPPPPPPPPPPPPPPPPPTl61PalLwv/ADzzzzzzzzzzzzzzzzzzzz2xtXjjT4Lbxr3zzzzzzzzzzzzzzzzzzjq0hRgtVKx3u97/AM8888888888888884B84ty4BSFd2M11Y/188888888888888v8AP0QAQQQAcffLL/PvvPPPPPPPPPPPPPPPFAQQQUUTPPPPPPPPPPPPPPPPPPPPPPPPJAAAAADOMPPPPPPPPPPPPPPPPPPPPPNOOKFGNNOLHOOPOPPPPPPPPPPPPPPPPPDGMCDEALPBFKMBDNPPPPPPPPPPPPPPPPCMKIMFDBKHBLCGCPPPPPPPPPPPPPPPPLHOHDJBMEKJCENMDPPPPPPPPPPPPPPPPLHLLLDLLHPLPHHLPPPPPPPPPPPPPPPPPPPPPPPPPPPPPPPPPPPPPPPPPPPPPPPPPPPPPPPPPPPPPPPPPPPPPPPPPPPPPPPPPPPPPPPPPPPPPPPPPPPPPPPPPPPPPPPPPPPPPPPPPPPPPPPPPPPPPPPPPPPPPPPPPPPPPPPPPPPPPPPPPPPPPPPPPPPPPPPPPPPPPPPPPPPPPPPPPPPPPPPPPPPPPPPPPPPPPPPPPPPPPPPPPPPPPPPPPPPPPPPPPPPPPPPPPPPPPPPPPPPPPPPPPPPPPPPPPPPPPPPPPPPPPPPPPPPPPPPPPPPPPPPPPPPPPPPPPPPPPPPPPPPPPPPPPPPPPPPPPPPPPPPPPPPPPPPPPPPPPPPPPPPPPPPPPPPPPPPPPPPPPPPPPPPPPPPPPPPPPP/EACwRAAIBAwMCBQIHAAAAAAAAAAECAAMRIRIxURNABBAgQZEiMiMwYXBxgZD/2gAIAQIBAT8A/etmCi5nX9yMQEEXEJAyYK63/TuKrlFuJerwJTYstzGq2NlyYtIk6nzLe0NMqbp8RfxG+s/1CoItNLU8rkcRKgfbtq/2x2CjMpq7LbYRUCiw9D0w+81NT+7IgYMLiPSDZGDBUKmz/M37Sq2v6VzFpZ1Pk+jqJzOqnMesqGxisGFxDSIN0iVQTZsGEAixmhqeU24iVA23Ys4UXMs9TfAiqFFh5tUVRcmVKpf+PKkAWzDTpO175lWswaynAnhy7AsxjoGFjLvT3yIrBhcR6YbPvBUZMP8AMBvt+f011aj5O4QXMaq7e8v6fDpa7GJWDvpC+gIoNx5EA4MACiw7FkDbzpJxOknE6ScTpJxOknH+Kn//xAA1EQABAwICBwYFAwUAAAAAAAABAgMEABESIQUTMUFRUvAQFSJAkdFhcYGhwRQgMDI0cJCx/9oACAEDAQE/AP8ANbTK3VYGxc0dFG2FKwVjdS0KbVhWLGkIUtWFIuaVol8IuLFXDfRBBsfLwIyZD2BZsLXyoN6OJtiV9vap0dMd8tpOQqPo8qTrXjhR9z8qd0gltOqijCnjvNBRBxA50ic3ITq5YvwUNop+8NkGIm4O1W3r/lJecSvWBRxcaEhiYMMjwr5h+evSpMN2OfEMtx3eW0P/AHB+RqMw484Eti9TXorL5dtjXw3Drq1SJLshWJw3/ZGmOxzdBy4bqLEeaLseFfLuPy6+lOtLaVgWLGo09bIwK8SOBpcJuQnWRD80naKKSk2O3ymj2DGP6h84U237T9Kf0h4dVGGFP3PaBfIUIMki4QfSv0EnkNRtGvyEY0Wt8aeZUw4UKOY4U1PS6nVSxiHHeOur1I0epCda0cSOI/NIWptWJBsaEpiYMEkWVzD89elSoTsc3VmNxGzyMeK7IVhbHtWKNB/o8bnHcOurU8+4+rE4bnsAJ2UxDeeVhSn2qHo9qMLjNXH27J6nEsENAknLKkyp8ZoJw2SPhULRrSmg4+m6lZm/xrTKI7KktNJAO01HlOx1Ymz7VgjTs0eBzhuNPMOMqwOCxqLOcYGA+JPA0uG1JTrIhz3pO36UpJScKhY/ziW8GdSk2T2RIqpLobT9aZ0dGZGSbnic6CQMgP2XFaZk4ylhBvx/AqVo9yMxrVvG/D48NtEkm57XJbrrYbWbgevr2IWpCsSTY066t1ZWs3J8izKdYBDZteu8ZXOa7xlc5rvGVzmu8ZXOa7xlc5oknM/6U//EAEcQAAEDAgIGBgUKBAUDBQAAAAECAwQABRESEyEiMUFRBhAVMlKRFFBhcaIgQlNUYoGSocHRIyQwsTM1Q3LwFkBjc4KQoOH/2gAIAQEAAT8C/wDmKKgkYqIA9vr6VcGo2z3nPCKCZdzXj838hTb8m3L0axinkf0qPKakpxQdfFJ39b8lqOnM4r7udOzZM1eRkKA5JqNc1tHRyQThx4ikLS4nMhQI9XPSmWCA4vKTXaUT6X8jXaUT6X8jTMhp8EtLzYdbjiGkZlqCRUi5OPq0ccEA+ZqLavnyPwUAEjADAU40h5GVxIUKkW12OrSxySB5iot1x2JGo+KpV1SjYY2leLhTEB+WrSvqISeJ3mmWW2EZW04CpMNqUNoYK8QpSJVsczJOxz4Gotwak7J2XOR9W3UYz0j7IrseP43PMUu0MJbUrO5qHOrL/iO+4dUu5Nx9lG25/akMyrk5nWdjmd33VHiNRk7A18VH5Mq3tSdobDnMVkdgSApxsH37jUaY1KGycFeE9ZAUMCMRUq1fPj/gqNcnGFaKSCQOPEU24h1GZCgoeq7n/mCfcOp7/BX/ALTVrebYLy3FYDAU/cHpStEwkgHlvNRLUE7cjaPh4VuGr5a0JcTlWkEe2pNrW0dJGJPs4iot1KdiT+KkqC05knEHiOuTEakp2xtcFCltSra5nSdjnwNRLi3I2VbDnLn6quf+YJ9w6ptybQlTbe2o6vYKi292TtHYb5mmIzUZODafeeJpa0NpzLUEj209emEamwXD5Cl3uQruJQmu1Zp/1fhFC6zR/q+aRTd8fHfQhX5UxeIzupeLZ9tBQUMUkEezrlQWpOvur8Qr+atjn2PyNRZzUnV3V+E9ZAIwO6pdqB24+o+Go9xdjq0UgEgc94pt1DyMzagR6oupwnpPsFPTJE5eiZSQnkKiWtDe29tq5cB1TbqiPihrbc/IUEy7i7xX/YUxY0DW+sqPJNNwozXdZR5UABuFFIO8A05b4rveZT92qpFj4sOf+1VMNXKIv+G2v3cDUZ5bqP4jSm1cj1qSFpyqGIPA1KtRTtxvw1Gui2jo5IJ9vEUhaXE5kKBHs65EVqSnBY18FcacYk25zOg4o5j9aiXJuRsr2HP7+ppd1S3sMbSvFwpmC/NXpXlEJPE7zTLDcdGVtOHVc7nhiwwf9yqt9rMjB17EN8udIQltIShIAHAdalBAxUQB7aXdIyThmKvcK7Xjcl+VdrxuS/Ku1o54OeVTJXozGYDaO4Gu1ZP2fKre+9IClOYZeGrrkw2pQ2hgrxClNyra5mSdjnwNRbg1J2TsOcuvfUu1BW3H1Hw1HuD0VWikAkDnvFNOoeRmbViPUUiU1GTi4dfAcTTkmTcF6NtOCfCP1qJbG2dpzbX+Q67rN9GZ0aD/ABF/lVrgekL0zo/hj8/kS57cYYd5zlT8l2QrFxX3fItrGmlAnuo11NhPSnQQpISN2NdkPeNFLWi3REpGs8PbXaz3gRXaz3gRTRUppJWMFHfRAIwIxFSrVjtx9R8NR7k7HVopAJA8xTbqHkZm1BQ65EVqSnBxPuPEU5Gk29ekbOKfEP1qJcm39lzYX+R/78nAYndUq6gbEfWfFUe3PSVaWQSAee8000hlGVtOA6+FOwJk2UXVpyJJ4nhTTaWWktp3CitI3qAoyWE73kfiqZdBhkj/AIqJJOJ3/JgS40ZjBROc79VdqxfErypiU3Jx0eOr2VcXtLJwHdTq6oLGmkjwp1n5EiK1JTgsa+CuNOR5NuXnbOKeY/Wolybf2V7Dn5H5Eu1JXtsbKvDwpie9DVon0kpHA7xTTzb6M7asR/3s+M7JbSltQGvWDxqLbm4+0rbc58vkE4DE1Iu6UHKynN7TupdxlL/1Mv8AtpTri+8tR95/pwWNBFSOJ1mjGj8Wm/KvRo30TflSEJbGCEhI9nypVqSvaYwSfDwqM2tqOhDisyhx+Q/GakpyuJ+/lUSGmIFYKKs3qK6SyVaBB1Dvf08DyNZTyNQIa3X0rUkhtOvXS1BCCo7hTjhdcKzxq2M73T7h6uVjlOXfwrspHfkP6zXZ0H6z8Yrs6D9Z+MV2dB+s/GK7Og/WfjFdnQfrPxiuzoP1n4xXZ0H6z8Yrs6D9Z+MV2dB+s/GK7Pg/WPjFJdjpSEh1vAfarTs/St/irTs/So/FQIUMQQR7KkvCNHU7lzYcKg3ATSsBvLl9vq6fK9EjFY724U6648vM4oqP9VtsuupQneo4Uy2GWUtp3JFXdWFvV7ThVhGp5Xu9XX0K0Lfhx1/0wMTgKFllEfM867Flf+Pzq3WtUZ3SukFXADqvruw2199WZvJCzeI4+rloS6goWMUnhRs0Twq/FS7LGKDkzBXDXTrK2HChwYEddutenTpHwQj5orsWJyX512LE+3512LE+3512LE+3501aorLgWEkkbsT8mW4Ztw2eJypppsNNJbG5Iw9YvxmZKcHUA0qxM46nVimLTGZObArP2v6UhpTzCm0ryY8cMah2lMV/SlzOeGzh6rJCQSdwrtu3/WPgV+1dt2/6x8CqYlsSh/BdSv3dT9zhxndG69lWOGU123b/AKx8Cv2qPcYstzRsu5lYY900/IajNaR5WVHOu27f9Y+BX7V23b/rHwKpiUxJGLLiV+6pM+NDKQ+5lKt2ommrtCedS229itW4ZTUmfFiKCX3cpOvcTTV2hPupbbezLVuGQ9T11hR3S049gsbxlNdt2/6f4DUeYxKbU4yvMlO84V23b/rHwK/amJDUprSMqzI54Ub1bwcPSPhNRpTMtBWwrMkHDHAipEuPFGLzqUV29Ax76vw0xJZlIzMuBY9lSJTMRvO+vKknDdQvVvJwD/wK/apEpmI3pH15U44bq7at5/1/gV+3qG6u6G2Pq5py+fXCeVHmNOJO5Wv3UTgMTUt/0mW694ldXRpGMh9fJOH/ADyrpI7gwyz4lZuuyrUi6tYfOxB8qvzukuZT9GkJqwNhVw0h3NoKqnyvTJjjvD5vuro7E78pQ+yj9amSREirePAahzNLUpxalqOKicT1WhrRWYc1gq6mZHonRkLHeXilPnSUlaglIxJ1CnXE2a0pSMCvcPaqnHVvOFxxRUo7yaII3irS+pm5M5TqWrKfvrpK7tMM+9Rq1taa5MJ+1j5V0ld1sM+9Rq2Naa5MI+1j5eoekjuEZprxKx8qjtaeS014lAV0lyAR9Qza/KoiNLMZRzWKvEj0e2uc17AptBddS2neo4CpuHprqU91Kso+7VXRtGEZ5fNeH/POr+7pLlk+jSBVkZ0tzRyQCqr8pJuZCQNlIBqwN57ln4NpJqS7p5LrviUTTLvo1qew776sn3Df/emm1POpbR3lHAVHYTGjoZTuSMK6QTNI+IyTst61e+tFkgF4/PVlT+v6UAVKAG80lsNRQ2NyUYdUuRmixY43NoxPvNdH4mmlF9Q2Wt3vrpG9mlttcEJx+81aGBIuTaVDFI2jXSNYM5CB81FWhvS3Rkcjm8qvTulujvJGzXRxrNKdd8CcPOr27pbo5yRs10cazTHHfAn+/qHpC7nuOT6NOFW19qNNQ89jlTyq4zjPlaTDBIGCRXR+NpJpeI2Wh+ddI5GZ9tgfNGY1Y2dJcAs91oZjS1Z1qUeJxqwoy2pB8RJqW7p5brviUTUWY9DUpTJAJGG6iXH3STitxR86jxjbLLIdc1PLT5cuoqKgkcE7q6OxM7q5StyNlPvqbJESIt48BqHM0lLkmQB3nHFfnV7CWVx4iO6y3+Zq1Naa5sJ5KzeVK7h93VvNW6L6HCQ187er31cndNcX1/aw8q6NNbb73IBIq5u6a5Pr+1h5V0dQA4/IVuQnD/nlTqy66tw71HGrA2Grap5XzlE/cKdcLry3DvUrGujrWSApzxq9QzXdPNec5qOFIYecGKGlqHMJxqPaZkhWGhUgeJYwqHEbgxg0n3qVzqY/6TMde8StXuq1t6CyS5PFYOHUlXonR4K4hn8z1O2wtWxuYXO98zCm3VsuBbailQ4ir++ezmkfOcOJptBcdSgb1HClDBRFdHP8vc/9X9BXSCZpZAjJOy3v99dHYmd5UpQ1I1J99XN3TXJ9f2sPKujbWMl13wpw86V3T1WOJ6RO0ihsNbX38KkO6GM474Uk9Vp/lLIp48czn/PKt5xqN/K9GXnOLuP7dT/8l0dy8dHl+89UBrQQGG+SdfqCa7oITznJJw6rM1orWzzVtdV3kej2108VbI+/qVdXDbvQg2gIwwx41vOFX5ehtjbA+cQPuFJBUoJG81fyGYkWKncP01VEa08tprxKArpE7mmob4IR/erK1pbo1yTtUvvq99WZ70ezynfAon8qUorUVKOJOs1GvT0SOlltprAc8a3nGujr69MqOlKch21HjTzgaYccO5KSeqyMBm2IOG05tGr67o7YoeMhPVdf5Sxhkb8Et9V5/lrZDi8d5+4f/tRGtPMZb8SxjXSR3COyz4lZvKorWnltNeJQHqHpC7kt2T6RWFISVrSkbycKQgNtpQNyRh1dJJGLrUcfNGY1AhmdJ0IVl1Yk4VcrV2ehCtNnzHdlwqEjSTmEc1iukbuaW214E4+dWlrTXNgcAc3lV/d0lyKfo0gV0fa0lxz/AEaSauLunuL6/tYCujTW2+97AkUrvH31aoyplpkMJXkzODXX/TS/rKfw1Ps5gR9Kp8KxOGGXqtFsMHMta8ylgcN1Xx3RWtzmshNJSVKCRvNNIDTSGxuSMK6SA+iNHhnoHKoEcKnXJ6fk0gSkJ4Jq0QzLmpxH8NvaVXSXH0lnlkqO+qNIQ8jDMk8amzXJz+lcw3YADhXR6IVvmUobKNSff6hu9ukXBTWiU2Eox7xqHYZDExp11bRQg46if265tkmSpjj2kZwUdWs7vKrRa1wC4p0oKlahlq725+4Ka0SmwEY941AsciNNbecW0Up8JNTrLLlzXHgtnBR1Yk/tVptDsGQp11TZ2cBlqTYpkiS67pGdtRO8/tVrtrsBp7MpBcXuwr/pyZ9Ix5n9qtcJUGJo1lJWVYnLR6OSyf8AEY8z+1WiA7AacS6pBzHHZ6rvAfnpaS0pACcScxpro7JS8grWzkChjgTu8uq7wH56G0NKQAk4nMaiWCQzLaccW0UIVjqJ/bqkx0S46mXO6ad6Oykq/hrbWnypno4+pX8Z1CU/Z1mo0VqIyGmk4D+9XCAiezkUcqh3VcqV0emA6i2oe+o3RxebGS6AnwopppDLaW205Up3D/7AH//EACwQAQACAQEGBgMBAQEBAQAAAAEAESExEEFRYXGBkaGxwdHwUOHxIDBAkKD/2gAIAQEAAT8h/wDsVzsUqgiWNn524HWNOstNx3uOlLe+zPVNNNyDbiY4DXom8rZrd2V+WFzxuMPseifjgx5AUr5T6/inJ/blAwbzdW1UY72ae+WfYmm9utH1YZMGADSNGHczWTyj7MOnBKnqS8p4nR04zWaz0DhKVN9xes6ZnUPmZQE6M9YlR1K16fjbI3h5s+ye0JFiJY+NpLKrgGnUy8U7J0StWvmH/N50C16zFz6UvoM69nU/e1yZMIms18brZ9GaMOWPG4wQ47z8X9/x2fWcIQDxyaXXV9RKejcnR14wAAAGgf7fsepFRgZz8DjEAnGKmTqQYHTJtpVI5glqSt3zCUdHEOOj8V9/x2UdCUn0ZWdAtekxmO9gqEd6qPvFyD2B6WxTr7fBFc25fAiuN5ZRQ8Rzxhdg0VZtFUcEPXjOsT1+NgoHi+xx2ogFajLXii9O000++rMKMe8/EWBoN5svAHXerKWn6znsepbxhYs3FxA86ER4wbG5tnxYJQByIHRnMhWG8Tbyg0/c8ZpgXnXCzm9dB6bVgdcGsQWcZu5OjKjAxj4nGH2PR2tNNoaJZv2J6JRVcBcdH4VaLZZUb7cfM/lMmErkG93vXYzyug+hOLFG9+s0+jBtSlWqqlORX8H8z+D+YOAZeX5lJcw7IeHKxSlu3p2db9zIgnRnrErOoXXo7UAiWOoy3o370enCaJPfVmDiPw3fgtQlowua+paUNe3NwA8HGa0FwO/AAowbaF5B3dZY4m4aH+Kxbx13QgdUEwuzX3+IAG6GluM/lvzP578wYwLBuiISajvh24pd9GaSeZ+zCjDvNuoYaMLm+ydkpKvuV/7wZAGqy9o3z0OnGajPfViDiHw37VpPDhBF4LddEEGjonmNM0i9kEkt38PSIkVar/nL6brshzWjWtJaNuXXY10/wGmm0NEs97M9Epa+E+RtQSnJLGnfbzpwmlVnoHGEQel1/wDbUzLIoivo4gx0H+ARADVYksSTfocBU82cf+d0nrMs6h4iCtCdk5MMFf5QSksY+tva1fEranP+GYjgNeiXryLvl+Cd1NYb3h/zv08CfxoyMLIq5ovNxrcqKV9dX8duZjq4ym6CW1QeLOY+vKcx9eU5j68pzH15TmPrynMfXlOY+vKcx9eU5j68oE63lEUQKCk/nJ/PS/pb1ZGnV0oyGsd67/HUitNPOKGnev8A13UQQZNBKLwo6op+OQ4NFbwr3/5oAWuAgR3/AL3Tn/XpKR4Vm1z2UCcreZ8Zf2fjjg6xRLdPIgzwGTfMYrtwuyaGF57A8iPIjyI5g1ZVf4UC3BHxmdkmk6PyLGI6O87xNiuDTB6L0XZ4TT/jdjmndJiTjDQ56/i2KoLXYh9XwRo1GosnbYyrAWx6GxB7S8FGO5GVWQwX02IfV8EZnDW2TtKissZngSzLKo78oLw9DSdiMGRQZfLZuzRErwJz315RSCqslb9+xAxdFMh6xAshrHxxSNw1TuQRaNB1e2s0GPjeVzTXeOpuhDEi2c9ukBWVwEBCx0NnPaDALr+BGUM0PJ77XMFBzbxARKDKxEN8nTd5RE1KnIH8bFZOouxXvtMW1R8S0rpx7h7xDWOF3bvdiZW7Q4DSXujfue3jKv8A4gIoJJHeuzKSkffTyDZdiu9FHoLGuLAN7C9CdcyvTWNJO4NQDfmXYUD4mEwh0BeR7zDthb0y9phDwXke8w1ZV9Mvb8DTbl30H7n9k1gBCesM6I4+7+cuY15xr5XNOT9ZleqLpYPScp7wkXgcd1c+8u6Wh8KPNIU5hJq6+5KRalfL3nITely8uq/kV+xBGsQc2esb3FnrdA/g9YVHnt5leNPGGFaUE3AS9itlj/ORfpXjPcUj+PiIa6t9OATKoYvL91NVQb7rMbYudl+sx5ug9jPncvQxS6r9MpI2AexnzWW0YpOq+B/A0xcD3OfcgNMVA2rVEYX3n3HPnG3aB5sHlcudjvr+jzharPpHr5RNVMp9J9r2mVrDOl4l7dxQ4mYqTRaoO2pHPgeLscuhXiv3lCPUWvl6ynW/SggJvUHemfIgDPpfeYwxY83tPOtgIAKuAg02nvtfjtMvWXHTA9Jaw1F1y+hMtWXPTD2mMzPdcsapLfduYlC57HzNZBPu3LSMvXQx63+ByvZ2zd5TI9qtCBRvmlPGMzdZG9xjbsT0DylkYLfIEPNdm6aydDHm7Aq6ctN6ZmlnZIB2BhyC3zSaa7PVYB2gpHg5ocRr538Hqz3CLa+XrMtWXPTD2ltmCPVfqeQ2VVjK57j37QGvjSKrbqwgrITtghVE2uWcBuDu/vs5bX6n1dmNKRepy+b+AyvT3zd57KYmFfdx5Vsolo+/+l7MBK13vX5wEBqwGHop/IKNpQRyN52FPWYWsc6XmV2+6/SplhqvsY86nmk0wsEd7Wo1xajvZx6zFl4uYqibXWDrIUjwATWYT2NmAaxvTyqVe5989oCtGsQ+pA9X0dnAtO7k84uXQHReZTDlF0H7mOrHOl5/A0xcj2GfYmi2h1ZpAg9DZZDHc3B7+MH0ts1QfSWcWwaCu84BDelytnFrqv0TCureb2lKuO46+8yox3Vx7syjYvoGD0lqDRLrl9CefQBuQReMPtP735hChpNL8+WwUzBinGn3hKQNAfV8hgI2lBNElnsVGG05+DH1ErI6NA7qvjGPIC+h3gs8aut/yEgrQaGYIk3DEwmNbi/16/gayWwYbeg8JeAjGONPFW2hZgm40Hggf3LK0b9Q5eErla1xlrgPCKaNUQ6NbuMNaxFoAoiy05dazzDhNEqI4i8RXpxdtFDV44sUbZa5wDaPuIldRkRoiLru5hsfP9mLd2g84w8gbTbOwjvlsW7tB5wi0GMWtg5cOpqPEiDhBW3hDDvkQVIvK71xYfsOwL/iVfjQr7RQJOYvd0gMBUH/AOgD/8QALBABAAECBQQBAwUBAQEAAAAAAREAITFBUWFxEIGRofBQscEgMNHh8UCQoP/aAAgBAQABPxD/ANimpBiQHdoEBCRGRPrprQsLB78uMaURlYl24vL5daOy7I8lrkfbUmsGumw5TM3LdYGmmebZ+cKiOdxZhmf9HNSNtNBwH+3ND+e7k/p2+nD3i5A1gNrNbXpqwoZAQVLCRByeuPvN8XQM3YqeYInPDGDi+5RjNNn2VjwecqHX8GAaAVllScHUcR3Kkp6Kxwxg4vtTxjAWzxYcltitLmbnCzb4c1K4Erp7HBu20GhufguuqxWsCMQaNp0bPqlqIiB0JlPvRo1g1m0e/PjH6aCpBqN+hZa1PoKgt6/FavSwRWWvfc2L8UIEmAoHTM+S1a2UXHfyNj9JhRL4B7c+ceaQjX7yyH2aUIIcl0Hc0bneOoSLuYGiUatjusO9hw+cqlQKcLusHN+awF5v6dHZ+l/Oaunx2qhB4icVLYMVqZ7oXR3TBx3ak5iUTyM22HNHEKAQBofrG08Ck/3eki7iYNv/ANc09dL4Bcl9qK1EzAnPWzkIsu9mbNIVpEKlkZT8GhnJtjjf+G/P0r5zV0kXabFIb5tjzTBFL4w7c+cKiOQzHI/jCscrBx7ocOyfcb+qeGT4fmWPVTYLYlMPPUP5UGM8pU7ynqlSZa27w/IUQF5EQ2Trb72aPDJ73r+eXxGz2q33ru7yye9uoE1gEiaJSjjHKFzy4bcVJzM0R5cHN96zjrODomI7P0gJxLo0KFNv81vXKNrGs1Z5bmJt9XNts6AAAgMAo0z2ku7pi7FPrc3f+GcF6xAibHs4n1RIYMDe4a2MMBU+IyJKRCD+5QqUKcTM4P5O9I0xuo7aY7l6y0bs7i6lKiJgHFPXS+YXDfdoIu5uDaH/AFzQ2nlUn+7dbPJRY8LmbNqXMDEUlpkfIauEVi8tzns35+igiABKuVWKeyX49XrmpwNFCxplGjhoNAOWxdVi9IzQlW5q33agkhye/t7ND2aIAOuHWJAd2m6MxZzyxPWRIcsEAXGgDizILSrGlb3y5pfw5emZ1UMOQWDs6NntFN2REboTKfejRjxLYJ+7jHnqZYUAkTRrUo1RzM22HFSK3IEDsuDns1n98V1omI7P0KLUCbvgPy2p+yuLaNf8TaasutwS9sOLu+DqoQmAjfBeTgVLs+OvAzoEABAGXVtAxdeSy4xpwFOW4z9F4cL+Dkeb9quRpkTmsFLADMi2kIm8gq2pktBSEYKERiobCcr0byYHINEp5xiIw82HDbcqSnppjlnBzfes8qTg6JiOz1gQSix4H8Nqblrg3GnwN5q762Bbm5wdny/94Q0lEAarUf8AAjni/c25qQPZSny4OexWXXwXWq4ru9bUrBYErxQiEkGSYAEuGsUUMsj716sM+9HrBZXPE1LvyI7cDnvTt1lEq/pvByyIaE8V/qaPUGDQlyq/YNrBzPnpMGtPFrYHmggg64NdFjwuZs2pLNsJyWmR3tozV2osJc3ODs++qIBCESRKu0t1t+U9cViWAsnucGzbRKdGbMWVoMR/7TerLAZKg4ab7VFYV8cfK7fj9AYWlEAa0Rp0LJLYLvqnWWchHvj7phXHH8o1K5v7IKgErlQw8feZdsKK0lxZTUqFoNV2wTDHr9KMwIRJEpUzZk9qPTDiiwOAKmKgLdAg7fogKZpm3fjCjlhEQAlEBy3+hKTxM/yH3/bCCocEVf7ijgASBmATjekxBK7ZUwle44GRRDZCwxM0+ZfTmFClgoLLTtRIl5WJeSfH7Rg0aMGjRowaCqQbqJ9UTJgrYd6+J/mvl/5odhyIncokIRQkpQxh1q5UQTjNiMPp0GM8sJZuxSvpllRsGRU1LU1LU1LU1LU1LU1LRbKTYnPtjUIAB7FE84F5n8U5AspeJfz9OY+DDAU/bCaFgMVcCpYmAwqSn+5oiVZJE8UoX6HfRHsWPzSDA7JLPR9OO3sFkaTgK4iDzUgXc8DJJpTbShExNTU6gKWEf1WmtfE/xXx/8V8f/FfH/wAU9lbiFrH6ESAEq5FSqnHsYn80VkBOx9RFndnxi5S9TyIO8FNyqQAdgB5mgAAAGAfs5wdpGYCTHmhEmhoG8ksfSxJMOwAJXpoKxUxTbMYWqoQ5OgvgDhiSSoYdNEhoO3lBZAxTzRvEnFVgICvjpoKxUq5GD5FQncoKTE4AYW9HemTRenOUh3q+iawyib0XnHRqCoDmWOKQsLL0kEUCNIMShg69KbbDOlgkQBbJh00iiS3FMbAfVD6lKWSaJF7VJlJAWDBFNkw1qBmJXJahldivxc/2n1ThNRJC7kPcUe025bFCAuC8UphYCZXAoXku9bFCAuA5ZU1dAATL9BRfBmrKLeye3VeyMGJkE2RaDwNRgBi0kLBNxJwewDtSsMoGEiySPirK5t36YmAU0iT3fjqXdGLZ0h4Qe1XHCEYSk/ce1KjgaSTH2TtTVbvtkNpLu61gOSkM8j1LektpvTiW7zE7S1ikFORK+XpKuQjcLoLjPvIb+NzsFYrIokYA70LIYOExOcGXAFTMmFKv4NsClQRQAIk1pHABWzsXCj2qT2xBF9VkOCnlAuebO9SYOOQhfVZIsRybke0O/wBBtcCBnAjyfFMCLMRkAL2JaRMFgIAg7S24aMhVnYjL2JatBsu5z+y6ESSTcA+9D4iDmxq2GYaxtLyEQMLjfU7UQ2YUktQCc2LRiyYzgO1OOvIwFI/f4p1FSYZJIdiCrehLnKBsw7nSuSzqEX2ot7IMRLFN1V71f8wxsLDueVpVvo5OZx/YoyYA2asBUL8GLT+F0xIcJm71Xkq60WIsK3hLs0nSRDRL/DjQ32CpEMgmYwd6g0ukyVR4B7096PfSQegd6gEA2uA8qXtAtpjPHmrtYBbgoXgJ9pafDj9BuENjSZvjwUNj06KsKazjlUXDkJRVnJJVexeKTBNULJoezsVcvcA7YO5JUc7/ADhIeSZU9uECz+aloiU868SgneoeIqThb7dNpwuHipUFyCrLAYuxR7myS4HeErzGXR7bkuUnmV60owdmk0ruyD+tT/ICZtvNjsNMXA8y9L3ZaW+Sy4TITuwok6W24Df3B3oyOv2OjZiAEq5BTKBcDO9yi3AVFMlPW5eBXk0Ql8HWosgo5WDHN3erLgzZSU7HtXtAvRferilD0vsSvsHWRferAjy1MH0FimTltY9BTs7kFHSQxueaW9m4C1gS9hqM8mDC+K0wAMgKcSrk8hZ8CoG/DRj1OkYsQ+n4R6NkzlAQmRK8gMQY0wyZaE23NTBrwOxLKPo2lAfepgIZOg1NolrvwYG2Fh3I5oulCsmJXHCj+tRZBRybFOSXer1CU7j7PzQk9/26WyESlv5QaGULROaiHdpGypKuK0JYAHOCHcHmnRKUcVavC6vBQoeB9LzBvMGwR7t26TJBZoX3D6BFMnLeR7DpYw3JmV0O4+tgMbknboOEVLJATjEoZ5aMGUANVqM0wWsp9lYTD65WArPSANH5JeK9lBMS8S1cWApo0vpWByLtZpeVLvgXo72wFLKeWCsUkUSMq92o9PYacqoRWXSnBKVOKtP0wLGARmIlMs2oh7kZiP46RqIzJljtj5NPCB9NJn6Z3oECpgDNoXCQM4Be55qBUAlcqMLgANAS5R7UYKTLi+yaOABk2BPf1puyhLEuxLQQQfQLBjY1mfvyUEUmeqQe2i+gt2APR0xGwBwDuAqH5k32ZJMqMc6gyOloJWZTieasxI5wz6mrljw0vDx5qmWWxwCZ7g71e4tXCRP7TtULMmGVgnhO1RFJRr+OFeQSCT8HOlPyL0vKQ7aIIExR0iTfBaaRcZYC6BUvGQXQyzdNKexQi0CAw+uVgK9Il4D7UMzKObF9mmiAsxmMlFiJSBLFSstoNPNPVWqWYZ5UYaDQVDIdGb6aR3VatiEY2WoMmDELLBKsqqv9U1kQWUhThPh9BGpYkxyWLKB7ojqX5boCDBm6ybSYuCFiEwJ3ppOKAcsnENFkA8krg0Qpv/1SxQEmIzor6o6EBBAwZNMvXJZIVdFDu09SJQaJHAg7U0lYzxgITMgbFLElZVvVXPR5WsBCg4DKinEjeus45EAhfoAAdCSAQyR7UsPDEAQCCYnFOhStaSAIZA9qk3gfJIAgxDPosVxRAriajRvKrzHuhDstECbcrHcA5l4qSkpDOcTNf8gpXaU8JxEzUEmxpS2fLNs3EUlmJZdmgHYNZFelh+XNW7/9AH///gADAP/Z;clipPath=inset(20.33% 24.67% 32.33% 11.67%);" vertex="1" parent="WIyWlLk6GJQsqaUBKTNV-1">
          <mxGeometry x="1020" width="134.51" height="100" as="geometry" />
        </mxCell>
      </root>
    </mxGraphModel>
  </diagram>
</mxfile>
